<svg width="723" height="134" viewBox="0 0 723 134" fill="none" xmlns="http://www.w3.org/2000/svg">
<mask id="mask0_492_12" style="mask-type:alpha" maskUnits="userSpaceOnUse" x="0" y="0" width="134" height="134">
<rect width="133.392" height="133.392" fill="black"/>
</mask>
<g mask="url(#mask0_492_12)">
<rect width="133.392" height="133.392" rx="10" fill="url(#paint0_linear_492_12)"/>
<rect x="-162.441" y="138.253" width="212.65" height="212.65" transform="rotate(-45 -162.441 138.253)" fill="white" fill-opacity="0.1"/>
<rect x="16.0072" y="52.9326" width="31.1247" height="60.8962" fill="white" fill-opacity="0.42"/>
<rect x="48.9109" y="20.4541" width="35.5711" height="93.3742" fill="white"/>
<path d="M86.2595 65.1104H117.384V113.827H86.2595V65.1104Z" fill="white" fill-opacity="0.31"/>
</g>
<path d="M161.737 77.3207C161.737 70.4377 163.138 64.435 165.939 59.3128C168.74 54.1105 172.622 50.1088 177.584 47.3075C182.546 44.4263 188.229 42.9856 194.631 42.9856C202.875 42.9856 209.678 45.0665 215.04 49.2284C220.483 53.3102 224.124 59.0727 225.965 66.5159H207.837C206.877 63.6347 205.236 61.3937 202.915 59.793C200.674 58.1123 197.873 57.2719 194.511 57.2719C189.709 57.2719 185.908 59.0327 183.106 62.5542C180.305 65.9957 178.905 70.9179 178.905 77.3207C178.905 83.6434 180.305 88.5656 183.106 92.0872C185.908 95.5287 189.709 97.2494 194.511 97.2494C201.314 97.2494 205.756 94.2081 207.837 88.1254H225.965C224.124 95.3286 220.483 101.051 215.04 105.293C209.598 109.535 202.795 111.656 194.631 111.656C188.229 111.656 182.546 110.255 177.584 107.454C172.622 104.573 168.74 100.571 165.939 95.4486C163.138 90.2463 161.737 84.2037 161.737 77.3207Z" fill="white"/>
<path d="M265.41 111.656C259.007 111.656 253.245 110.255 248.122 107.454C243 104.573 238.958 100.531 235.997 95.3286C233.116 90.1263 231.675 84.1237 231.675 77.3207C231.675 70.5177 233.156 64.5151 236.117 59.3128C239.158 54.1105 243.28 50.1088 248.483 47.3075C253.685 44.4263 259.487 42.9856 265.89 42.9856C272.293 42.9856 278.096 44.4263 283.298 47.3075C288.5 50.1088 292.582 54.1105 295.543 59.3128C298.585 64.5151 300.105 70.5177 300.105 77.3207C300.105 84.1237 298.544 90.1263 295.423 95.3286C292.382 100.531 288.22 104.573 282.938 107.454C277.735 110.255 271.893 111.656 265.41 111.656ZM265.41 97.0093C268.451 97.0093 271.293 96.289 273.934 94.8484C276.655 93.3277 278.816 91.0867 280.417 88.1254C282.017 85.1641 282.818 81.5625 282.818 77.3207C282.818 70.9979 281.137 66.1558 277.775 62.7943C274.494 59.3528 270.452 57.6321 265.65 57.6321C260.848 57.6321 256.806 59.3528 253.525 62.7943C250.323 66.1558 248.723 70.9979 248.723 77.3207C248.723 83.6434 250.283 88.5256 253.405 91.9671C256.606 95.3286 260.608 97.0093 265.41 97.0093Z" fill="white"/>
<path d="M346.889 43.1057C354.813 43.1057 361.215 45.6268 366.098 50.669C370.98 55.6312 373.421 62.5942 373.421 71.5582V110.575H356.613V73.8392C356.613 68.5568 355.293 64.5151 352.652 61.7138C350.01 58.8326 346.409 57.3919 341.847 57.3919C337.205 57.3919 333.523 58.8326 330.802 61.7138C328.161 64.5151 326.84 68.5568 326.84 73.8392V110.575H310.033V44.0661H326.84V52.3497C329.081 49.4685 331.923 47.2275 335.364 45.6268C338.886 43.9461 342.727 43.1057 346.889 43.1057Z" fill="white"/>
<path d="M406.571 57.8722V90.0463C406.571 92.2872 407.091 93.928 408.132 94.9684C409.252 95.9288 411.093 96.409 413.654 96.409H421.458V110.575H410.893C396.727 110.575 389.644 103.692 389.644 89.9262V57.8722H381.72V44.0661H389.644V27.6189H406.571V44.0661H421.458V57.8722H406.571Z" fill="white"/>
<path d="M492.972 75.88C492.972 78.2811 492.812 80.442 492.492 82.3629H443.871C444.271 87.165 445.952 90.9266 448.913 93.6478C451.874 96.369 455.516 97.7296 459.838 97.7296C466.081 97.7296 470.523 95.0484 473.164 89.6861H491.292C489.371 96.0889 485.689 101.371 480.247 105.533C474.805 109.615 468.122 111.656 460.198 111.656C453.795 111.656 448.033 110.255 442.911 107.454C437.868 104.573 433.907 100.531 431.025 95.3286C428.224 90.1263 426.823 84.1237 426.823 77.3207C426.823 70.4377 428.224 64.395 431.025 59.1927C433.827 53.9905 437.748 49.9887 442.79 47.1875C447.833 44.3863 453.635 42.9856 460.198 42.9856C466.521 42.9856 472.163 44.3462 477.126 47.0674C482.168 49.7886 486.049 53.6703 488.771 58.7125C491.572 63.6747 492.972 69.3972 492.972 75.88ZM475.565 71.0779C475.485 66.7561 473.924 63.3145 470.883 60.7534C467.841 58.1123 464.12 56.7917 459.718 56.7917C455.556 56.7917 452.035 58.0722 449.153 60.6334C446.352 63.1145 444.631 66.596 443.991 71.0779H475.565Z" fill="white"/>
<path d="M539.695 43.1057C547.619 43.1057 554.022 45.6268 558.904 50.669C563.786 55.6312 566.227 62.5942 566.227 71.5582V110.575H549.42V73.8392C549.42 68.5568 548.099 64.5151 545.458 61.7138C542.817 58.8326 539.215 57.3919 534.653 57.3919C530.011 57.3919 526.33 58.8326 523.608 61.7138C520.967 64.5151 519.647 68.5568 519.647 73.8392V110.575H502.839V44.0661H519.647V52.3497C521.888 49.4685 524.729 47.2275 528.17 45.6268C531.692 43.9461 535.534 43.1057 539.695 43.1057Z" fill="white"/>
<path d="M575.487 77.0806C575.487 70.3576 576.808 64.395 579.449 59.1927C582.17 53.9905 585.852 49.9887 590.494 47.1875C595.136 44.3863 600.298 42.9856 605.98 42.9856C610.302 42.9856 614.424 43.9461 618.346 45.8669C622.268 47.7077 625.389 50.1888 627.71 53.3102V21.7363H644.757V110.575H627.71V100.731C625.629 104.012 622.708 106.654 618.946 108.654C615.184 110.655 610.823 111.656 605.86 111.656C600.258 111.656 595.136 110.215 590.494 107.334C585.852 104.453 582.17 100.411 579.449 95.2085C576.808 89.9262 575.487 83.8836 575.487 77.0806ZM627.83 77.3207C627.83 73.2389 627.03 69.7574 625.429 66.8761C623.828 63.9148 621.667 61.6738 618.946 60.1532C616.225 58.5525 613.304 57.7521 610.182 57.7521C607.061 57.7521 604.18 58.5124 601.538 60.0331C598.897 61.5538 596.736 63.7948 595.056 66.7561C593.455 69.6373 592.655 73.0788 592.655 77.0806C592.655 81.0823 593.455 84.6039 595.056 87.6452C596.736 90.6065 598.897 92.8875 601.538 94.4882C604.26 96.0889 607.141 96.8892 610.182 96.8892C613.304 96.8892 616.225 96.1289 618.946 94.6083C621.667 93.0076 623.828 90.7666 625.429 87.8853C627.03 84.924 627.83 81.4025 627.83 77.3207Z" fill="white"/>
<path d="M688.305 111.656C681.902 111.656 676.139 110.255 671.017 107.454C665.895 104.573 661.853 100.531 658.892 95.3286C656.01 90.1263 654.57 84.1237 654.57 77.3207C654.57 70.5177 656.05 64.5151 659.012 59.3128C662.053 54.1105 666.175 50.1088 671.377 47.3075C676.579 44.4263 682.382 42.9856 688.785 42.9856C695.188 42.9856 700.99 44.4263 706.192 47.3075C711.395 50.1088 715.477 54.1105 718.438 59.3128C721.479 64.5151 723 70.5177 723 77.3207C723 84.1237 721.439 90.1263 718.318 95.3286C715.276 100.531 711.115 104.573 705.832 107.454C700.63 110.255 694.787 111.656 688.305 111.656ZM688.305 97.0093C691.346 97.0093 694.187 96.289 696.828 94.8484C699.55 93.3277 701.711 91.0867 703.311 88.1254C704.912 85.1641 705.712 81.5625 705.712 77.3207C705.712 70.9979 704.031 66.1558 700.67 62.7943C697.389 59.3528 693.347 57.6321 688.545 57.6321C683.743 57.6321 679.701 59.3528 676.419 62.7943C673.218 66.1558 671.617 70.9979 671.617 77.3207C671.617 83.6434 673.178 88.5256 676.299 91.9671C679.501 95.3286 683.503 97.0093 688.305 97.0093Z" fill="white"/>
<defs>
<linearGradient id="paint0_linear_492_12" x1="133.392" y1="0" x2="0" y2="133.392" gradientUnits="userSpaceOnUse">
<stop offset="0.00441945" stop-color="#0846E7"/>
<stop offset="1" stop-color="#F000D8"/>
</linearGradient>
</defs>
</svg>
