<svg width="109" height="36" viewBox="0 0 109 36" fill="none" xmlns="http://www.w3.org/2000/svg">
<path d="M12.4973 7.69942H7.94533V2.49711H2.0691V7.69942H0V12.2775H2.0691V21.8497C2.0691 24.9295 3.214 26.8439 5.5038 27.5931C6.49696 27.926 7.69704 28.0925 9.10402 28.0925H12.4973V23.0983H8.52468C8.16603 23.0428 7.97292 22.8486 7.94533 22.5156V12.2775H12.4973V7.69942Z" fill="#F5501C"/>
<path d="M23.8774 23.7225H20.2771C19.9185 23.6671 19.7254 23.4728 19.6978 23.1399V20.4347C19.753 20.074 19.9461 19.8798 20.2771 19.852H23.8774V23.7225ZM19.9047 28.5087C22.3049 28.4532 23.6705 27.2324 24.0015 24.8462L24.4153 28.0925H29.795V13.6509C29.795 10.7376 28.8294 8.89249 26.8983 8.11561C25.9879 7.78266 24.8154 7.61619 23.3808 7.61619L15.3941 7.6578V12.652L23.298 12.6104C23.6567 12.6659 23.8498 12.8601 23.8774 13.1931V15.6902H20.1116C17.2425 15.6902 15.4079 16.3977 14.6078 17.8127C14.1388 18.6451 13.9043 19.8104 13.9043 21.3087V23.3064C13.9043 25.9699 14.8561 27.5931 16.7597 28.1757C17.477 28.3977 18.3184 28.5087 19.284 28.5087H19.9047Z" fill="#F5501C"/>
<path d="M42.6648 19.8936C42.9682 19.9491 43.1751 20.1434 43.2855 20.4763L45.4374 28.0925H51.4791L49.4928 21.3503C48.8859 19.3526 48.2099 18.0902 47.4651 17.563C47.2168 17.3965 46.9547 17.2578 46.6788 17.1468C47.3409 16.5919 47.9203 15.3572 48.4169 13.4428L49.948 7.69942H44.0718L42.4165 14.3168C42.2785 14.6775 42.0716 14.8717 41.7957 14.8994H39.3128V0H33.5194V28.0925H39.3128V19.8936H42.6648Z" fill="#F5501C"/>
<path d="M68.4457 28.3422V23.348H59.6727C59.3141 23.2925 59.121 23.0983 59.0934 22.7653V20.5179H69.0664V13.1098C69.0664 10.474 68.3354 8.76763 66.8732 7.99075C65.9352 7.51908 64.5972 7.28324 62.8591 7.28324H59.4244C56.6105 7.28324 54.7897 7.97688 53.962 9.36416C53.4655 10.252 53.2172 11.5006 53.2172 13.1098V22.0994C53.2172 25.1792 54.3621 27.0936 56.6519 27.8428C57.645 28.1757 58.8451 28.3422 60.2521 28.3422H68.4457ZM59.0934 12.652C59.1486 12.2913 59.3417 12.0971 59.6727 12.0694H62.6936C63.0523 12.1249 63.2454 12.3191 63.273 12.652V16.3561H59.0934V12.652Z" fill="#F5501C"/>
<path d="M78.6257 28.5087C81.0534 28.4532 82.4328 27.2324 82.7639 24.8462L83.1777 28.0925H88.5159L88.4332 7.69942H82.5569L82.6397 23.7225H78.6257C78.267 23.6671 78.0739 23.4728 78.0463 23.1399V7.69942H72.1701V23.3064C72.1701 25.9699 73.1219 27.5931 75.0254 28.1757C75.7427 28.3977 76.5842 28.5087 77.5497 28.5087H78.6257Z" fill="#F5501C"/>
<path d="M98.5718 36V28.1757H102.793C105.662 28.1757 107.496 27.4682 108.297 26.0532C108.765 25.2208 109 24.0555 109 22.5572V12.4855C109 9.82197 108.048 8.19884 106.145 7.61619C105.427 7.39422 104.586 7.28324 103.62 7.28324H102.586C100.186 7.28324 98.82 8.50405 98.489 10.9457C98.4614 11.0289 98.4476 11.0983 98.4476 11.1538L97.9924 7.69942H92.6541V36H98.5718ZM98.5718 12.652C98.6269 12.2913 98.82 12.0971 99.1511 12.0694H102.627C102.986 12.1249 103.179 12.3191 103.207 12.652V22.7237C103.151 23.0844 102.958 23.2786 102.627 23.3064H98.5718V12.652Z" fill="#F5501C"/>
</svg>
