<svg width="125" height="20" viewBox="0 0 125 20" fill="none" xmlns="http://www.w3.org/2000/svg">
<path d="M0.0019276 0.00019401V6.39419H2.50172V2.25362H13.0274V0L0.0019276 0.00019401ZM18.1494 0.00019401V6.19712H20.6488V2.25386H31.2861V0.000238782L18.1494 0.00019401ZM36.8936 0.00019401V15.2111H39.393V0.00019401H36.8936ZM50.1151 0.00019401V2.25382H66.2228V0.00019401H50.1151ZM70.9644 0.00019401V15.2111H73.4642V0.00019401H70.9644ZM95.1113 0.00019401L87.0295 19.9996H89.585L96.1673 2.92969L97.2225 0.000440254L95.1113 0.00019401ZM109.863 0.00019401V15.4927H112.363V2.19738H118.807C119.195 2.19738 119.584 2.28196 119.945 2.45097C120.306 2.64814 120.612 2.87322 120.862 3.1549C121.112 3.46474 121.306 3.83123 121.473 4.22558C121.612 4.6481 121.695 5.09872 121.695 5.5494C121.695 6.02826 121.612 6.45068 121.445 6.84503C121.278 7.23938 121.084 7.60538 120.806 7.88706C120.529 8.19691 120.223 8.45064 119.862 8.61964C119.473 8.78865 119.057 8.87323 118.64 8.87323H114.863V10.9291H119.417C119.862 10.9291 120.251 11.0419 120.64 11.2109C121.001 11.4081 121.306 11.6618 121.584 11.9717C121.862 12.3097 122.056 12.6757 122.223 13.0982C122.389 13.5208 122.473 13.9432 122.473 14.3939C122.473 14.8445 122.389 15.2951 122.223 15.6895C122.028 16.112 121.806 16.4785 121.528 16.7883C121.223 17.0982 120.862 17.3514 120.501 17.5204C120.112 17.7176 119.668 17.8022 119.223 17.8022H109.864V19.9995H119.223C120.001 19.9995 120.751 19.8867 121.445 19.6332C122.139 19.4079 122.75 19.0418 123.278 18.5912C123.806 18.1405 124.222 17.6053 124.528 16.9574C124.833 16.3377 125 15.6334 125 14.8447C125 13.6053 124.667 12.5349 124 11.6335C123.334 10.7321 122.445 10.0842 121.334 9.74616C122.222 9.35181 122.917 8.70385 123.417 7.85882C123.917 7.04195 124.166 6.11254 124.166 5.09852C124.166 4.47883 124.056 3.88723 123.834 3.26754C123.611 2.64785 123.306 2.11266 122.945 1.6338C122.556 1.15495 122.084 0.760726 121.528 0.450879C120.973 0.169201 120.334 4.47716e-05 119.667 4.47716e-05L109.863 0.00019401ZM98.3052 2.73286L97.2222 5.7186L99.7215 12.1691H94.7783L94.0282 14.1405H100.277L102.61 19.9997H105.276L98.3052 2.73286ZM56.9185 4.78877V19.9996H59.4185V4.78853L56.9185 4.78877ZM18.1475 8.73276V15.2114H20.6468V10.8451H29.895V8.73283L18.1475 8.73276ZM0 8.92999V19.9998H2.49979V11.0409H11.3596V8.9286L0 8.92999ZM18.1475 17.7464V20H31.5336V17.7464H18.1475ZM36.8917 17.7464V20H50.389V17.7464H36.8917ZM70.9615 17.7464V20H84.4593V17.7464H70.9615Z" fill="#00060E"/>
</svg>
