<svg width="165" height="26" viewBox="0 0 165 26" fill="none" xmlns="http://www.w3.org/2000/svg">
<path d="M0.00254444 0.000252213V8.31245H3.30227V2.92971H17.1962V0L0.00254444 0.000252213ZM23.9573 0.000252213V8.05625H27.2564V2.93002H41.2976V0.000310416L23.9573 0.000252213ZM48.6996 0.000252213V19.7744H51.9987V0.000252213H48.6996ZM66.152 0.000252213V2.92996H87.4141V0.000252213H66.152ZM93.6731 0.000252213V19.7744H96.9728V0.000252213H93.6731ZM125.547 0.000252213L114.879 25.9995H118.252L126.941 3.8086L128.334 0.00057233L125.547 0.000252213ZM145.02 0.000252213V20.1406H148.319V2.85659H156.825C157.338 2.85659 157.851 2.96655 158.328 3.18626C158.804 3.44258 159.208 3.73518 159.538 4.10136C159.868 4.50416 160.124 4.9806 160.344 5.49326C160.527 6.04253 160.637 6.62834 160.637 7.21423C160.637 7.83674 160.527 8.38588 160.307 8.89853C160.087 9.41119 159.831 9.887 159.464 10.2532C159.098 10.656 158.694 10.9858 158.218 11.2055C157.704 11.4252 157.155 11.5352 156.605 11.5352H151.619V14.2079H157.631C158.218 14.2079 158.731 14.3545 159.245 14.5742C159.721 14.8305 160.124 15.1604 160.491 15.5632C160.857 16.0026 161.114 16.4784 161.334 17.0277C161.554 17.577 161.664 18.1261 161.664 18.712C161.664 19.2979 161.554 19.8837 161.334 20.3963C161.078 20.9456 160.784 21.422 160.417 21.8248C160.014 22.2276 159.538 22.5569 159.061 22.7766C158.548 23.0329 157.961 23.1429 157.375 23.1429H145.02V25.9993H157.375C158.401 25.9993 159.391 25.8527 160.307 25.5232C161.224 25.2302 162.03 24.7544 162.727 24.1685C163.424 23.5826 163.973 22.8869 164.377 22.0446C164.78 21.239 165 20.3234 165 19.2981C165 17.6869 164.56 16.2954 163.68 15.1236C162.801 13.9518 161.627 13.1094 160.161 12.67C161.334 12.1574 162.25 11.315 162.91 10.2165C163.57 9.15454 163.9 7.9463 163.9 6.62807C163.9 5.82247 163.754 5.0534 163.46 4.2478C163.167 3.4422 162.763 2.74645 162.287 2.12394C161.774 1.50144 161.15 0.988943 160.417 0.586143C159.684 0.219961 158.841 5.8203e-05 157.961 5.8203e-05L145.02 0.000252213ZM129.763 3.55272L128.333 7.43419L131.632 15.8198H125.107L124.117 18.3826H132.366L135.446 25.9996H138.965L129.763 3.55272ZM75.1324 6.22541V25.9995H78.4324V6.22509L75.1324 6.22541ZM23.9547 11.3526V19.7748H27.2538V14.0986H39.4614V11.3527L23.9547 11.3526ZM0 11.609V25.9997H3.29972V14.3531H14.9947V11.6072L0 11.609ZM23.9547 23.0703V26H41.6244V23.0703H23.9547ZM48.6971 23.0703V26H66.5135V23.0703H48.6971ZM93.6692 23.0703V26H111.486V23.0703H93.6692Z" fill="white"/>
</svg>
